:SAMPLES-PER-SECOND 30
:FULLY-SPECIFIED
:DEGREES
17
root  81.347 40.2727 1.76691 168.163 -85.7776 -169.137
RightUpLeg  -0.542705 -7.27113 -5.35083
RightLeg  5.3354 2.86555 2.63929
RightFoot  -2.16816 -0.0878226 0.913543
RightToes  0.00048216 0.542163 -0.142577
Spine  4.95612 1.25307 2.74054
Spine1  3.62141 1.8128 -2.36633
HEad  9.52244 -0.795525 -0.395458
LeftShoulder1  1.84604 -3.20663 -21.02
LeftArm  -21.0377 5.34962 -2.92453
LeftForeArm  5.89151 -1.7823 -0.960393
LeftHand  -0.25398 0.0180481 5.50724
RightShoulder  1.46109 2.432 18.0601
RightArm  -25.0164 -0.142151 4.66548
RightForeArm  -4.6879 3.0592 2.58607
RightHand  -2.09771 7.50473 -19.1412
LeftUpLeg  1.71656 6.08107 3.16628
LeftLeg  5.82201 15.595 -3.09919
LeftFoot  -6.62957 0.0233433 0.403204
LeftToes  1.06248e-005 4.65856e-005 -8.185e-006
18
root  81.3438 40.2115 1.89872 169.69 -85.5156 -171.113
RightUpLeg  -1.1231 -7.87142 -5.61121
RightLeg  7.31998 3.78983 2.43547
RightFoot  -2.77547 -0.134893 1.54731
RightToes  0.00048216 0.542163 -0.142577
Spine  5.49291 1.28165 2.35639
Spine1  3.8558 1.74344 -2.01677
HEad  10.5163 -0.712201 -0.678892
LeftShoulder1  1.95532 -3.24443 -22.5639
LeftArm  -21.7825 5.51177 -4.88002
LeftForeArm  7.49135 -2.01492 -0.666819
LeftHand  -0.25398 0.0180481 5.50724
RightShoulder  1.75083 3.11062 20.052
RightArm  -25.62 -1.0121 5.97464
RightForeArm  -5.24141 4.56311 2.65821
RightHand  -2.08356 7.2351 -19.401
LeftUpLeg  1.95654 6.24213 2.99682
LeftLeg  6.51041 15.689 -3.07286
LeftFoot  -7.2561 0.0285894 0.422687
LeftToes  1.06248e-005 4.65856e-005 -8.185e-006
19
root  81.3667 40.1473 2.03373 169.194 -85.3103 -171.013
RightUpLeg  -2.27647 -9.00208 -5.6411
RightLeg  10.1687 4.87355 2.19923
RightFoot  -3.05043 -0.171404 2.08149
RightToes  0.00048216 0.542163 -0.142577
Spine  6.24251 1.28081 2.02884
Spine1  3.89831 1.60833 -1.56579
HEad  11.5416 -0.290223 -1.05843
LeftShoulder1  2.22615 -3.65643 -24.7722
LeftArm  -22.1062 5.77886 -6.7714
LeftForeArm  8.51617 -2.59029 -0.617843
LeftHand  -0.25398 0.0180481 5.50724
RightShoulder  2.11883 3.85656 22.529
RightArm  -25.9113 -1.8346 7.00415
RightForeArm  -4.70878 6.0382 2.76396
RightHand  -2.08064 7.15204 -19.497
LeftUpLeg  1.98136 6.6237 3.06915
LeftLeg  7.5153 15.4217 -3.09207
LeftFoot  -8.0834 0.0419276 0.226053
LeftToes  1.06248e-005 4.65856e-005 -8.185e-006
20
root  81.4159 40.0867 2.17507 166.708 -84.8861 -168.859
RightUpLeg  -4.27723 -10.2206 -5.34322
RightLeg  14.1431 5.8883 1.96872
RightFoot  -2.66902 -0.260994 3.19289
RightToes  0.00048216 0.542163 -0.142577
Spine  6.92708 1.36525 2.11099
Spine1  4.33821 1.62168 -1.34593
HEad  12.3053 -0.0398425 -1.42556
LeftShoulder1  2.65999 -4.41136 -27.4233
LeftArm  -22.4966 5.79998 -8.75879
LeftForeArm  9.62087 -3.24736 -0.592027
LeftHand  -0.25398 0.0180481 5.50724
RightShoulder  2.47912 4.4601 25.0143
RightArm  -25.846 -2.64289 8.44653
RightForeArm  -4.34512 7.63525 3.02707
RightHand  -2.15297 7.3157 -19.8981
LeftUpLeg  1.86344 7.13147 3.37436
LeftLeg  8.66994 15.1696 -3.0383
LeftFoot  -9.03064 0.0596697 -0.277729
LeftToes  1.06248e-005 4.65856e-005 -8.185e-006
21
root  81.471 40.016 2.32105 165.038 -84.0061 -167.504
RightUpLeg  -7.18783 -10.0352 -5.04239
RightLeg  19.32 5.66912 1.93902
RightFoot  -1.35598 -0.491752 5.48171
RightToes  0.00048216 0.542163 -0.142577
Spine  7.46733 1.5014 2.58642
Spine1  5.45926 1.82497 -1.63447
HEad  12.4621 0.127845 -1.76267
LeftShoulder1  3.10142 -5.0771 -30.01
LeftArm  -22.6682 5.42928 -11.4196
LeftForeArm  9.24126 -3.93834 -0.791511
LeftHand  -0.25398 0.0180481 5.50724
RightShoulder  2.77351 4.8689 27.0788
RightArm  -25.4285 -3.20159 10.9474
RightForeArm  -4.59168 9.1975 3.45047
RightHand  -2.27559 7.56521 -20.6034
LeftUpLeg  1.76956 7.56067 3.64934
LeftLeg  9.77006 15.5026 -2.82953
LeftFoot  -9.98103 0.0688004 -0.728949
LeftToes  1.06248e-005 4.65856e-005 -8.185e-006
